<svg xmlns="http://www.w3.org/2000/svg" xmlns:xlink="http://www.w3.org/1999/xlink" width="889" zoomAndPan="magnify" viewBox="0 0 666.75 326.250004" height="435" preserveAspectRatio="xMidYMid meet" version="1.0"><defs><g/></defs><g fill="#ffffff" fill-opacity="1"><g transform="translate(55.129309, 206.203622)"><g><path d="M 4.0625 -60.6875 C 5.007812 -62.101562 6.015625 -62.957031 7.078125 -63.25 C 8.140625 -63.539062 8.90625 -62.6875 9.375 -60.6875 C 10.4375 -55.375 12.734375 -51.300781 16.265625 -48.46875 C 19.804688 -45.644531 23.9375 -44.082031 28.65625 -43.78125 C 33.375 -43.488281 38.117188 -44.519531 42.890625 -46.875 C 47.671875 -49.238281 51.773438 -52.957031 55.203125 -58.03125 C 58.265625 -62.28125 61.0625 -67.378906 63.59375 -73.328125 C 66.132812 -79.285156 68.613281 -85.535156 71.03125 -92.078125 C 73.445312 -98.628906 75.832031 -105.117188 78.1875 -111.546875 C 80.550781 -117.972656 82.972656 -123.78125 85.453125 -128.96875 C 81.441406 -128.382812 77.367188 -128.472656 73.234375 -129.234375 C 69.109375 -130.003906 64.953125 -130.625 60.765625 -131.09375 C 56.578125 -131.570312 52.363281 -131.160156 48.125 -129.859375 C 44.46875 -128.679688 41.695312 -127 39.8125 -124.8125 C 37.925781 -122.632812 36.953125 -120.363281 36.890625 -118 C 36.828125 -115.644531 37.796875 -113.550781 39.796875 -111.71875 C 41.804688 -109.894531 44.816406 -108.804688 48.828125 -108.453125 C 51.421875 -108.210938 54.070312 -108.390625 56.78125 -108.984375 C 59.5 -109.578125 61.976562 -110.640625 64.21875 -112.171875 C 64.925781 -112.753906 65.515625 -112.898438 65.984375 -112.609375 C 66.460938 -112.316406 66.703125 -111.695312 66.703125 -110.75 C 66.578125 -104.144531 65.363281 -98.570312 63.0625 -94.03125 C 60.769531 -89.488281 57.851562 -86.007812 54.3125 -83.59375 C 50.769531 -81.175781 47.082031 -79.847656 43.25 -79.609375 C 39.414062 -79.378906 35.847656 -80.207031 32.546875 -82.09375 C 29.242188 -83.976562 26.648438 -86.925781 24.765625 -90.9375 C 22.878906 -94.945312 22.171875 -100.019531 22.640625 -106.15625 C 23.234375 -113.820312 25.207031 -121.046875 28.5625 -127.828125 C 31.925781 -134.609375 36.289062 -140.5625 41.65625 -145.6875 C 47.03125 -150.820312 53.164062 -154.863281 60.0625 -157.8125 C 66.96875 -160.757812 74.3125 -162.234375 82.09375 -162.234375 C 86.6875 -162.234375 91.253906 -162 95.796875 -161.53125 C 100.335938 -161.0625 104.96875 -160.765625 109.6875 -160.640625 C 114.40625 -160.523438 119.300781 -161.054688 124.375 -162.234375 C 126.257812 -162.585938 127.347656 -162.144531 127.640625 -160.90625 C 127.941406 -159.664062 127.328125 -158.578125 125.796875 -157.640625 C 120.597656 -154.566406 115.875 -150.257812 111.625 -144.71875 C 107.382812 -139.175781 103.523438 -132.804688 100.046875 -125.609375 C 96.566406 -118.421875 93.410156 -110.875 90.578125 -102.96875 C 87.753906 -95.0625 85.101562 -87.21875 82.625 -79.4375 C 90.050781 -90.164062 97.566406 -100.894531 105.171875 -111.625 C 112.785156 -122.363281 120.191406 -132.039062 127.390625 -140.65625 C 134.347656 -148.675781 141.15625 -154.273438 147.8125 -157.453125 C 154.476562 -160.640625 160.9375 -162.234375 167.1875 -162.234375 C 172.257812 -162.234375 176.535156 -160.519531 180.015625 -157.09375 C 183.492188 -153.675781 185.613281 -149.109375 186.375 -143.390625 C 187.144531 -137.671875 186.054688 -131.390625 183.109375 -124.546875 C 180.160156 -117.710938 174.796875 -110.816406 167.015625 -103.859375 C 166.421875 -103.378906 165.769531 -103.050781 165.0625 -102.875 C 164.351562 -102.695312 163.882812 -103.140625 163.65625 -104.203125 C 162.59375 -108.335938 160.585938 -111.082031 157.640625 -112.4375 C 154.691406 -113.789062 151.359375 -114.203125 147.640625 -113.671875 C 143.921875 -113.140625 140.296875 -112.109375 136.765625 -110.578125 C 129.566406 -107.503906 122.425781 -103.109375 115.34375 -97.390625 C 108.269531 -91.671875 101.609375 -85.273438 95.359375 -78.203125 C 96.535156 -73.015625 98.742188 -68.148438 101.984375 -63.609375 C 105.234375 -59.066406 109.066406 -55.144531 113.484375 -51.84375 C 117.910156 -48.539062 122.539062 -46.207031 127.375 -44.84375 C 132.21875 -43.488281 136.878906 -43.3125 141.359375 -44.3125 C 145.835938 -45.320312 149.671875 -47.890625 152.859375 -52.015625 C 153.566406 -52.960938 154.273438 -53.347656 154.984375 -53.171875 C 155.691406 -52.992188 156.101562 -52.488281 156.21875 -51.65625 C 156.570312 -49.882812 156.394531 -47.410156 155.6875 -44.234375 C 154.75 -39.515625 152.804688 -34.554688 149.859375 -29.359375 C 146.910156 -24.171875 143.3125 -19.363281 139.0625 -14.9375 C 134.8125 -10.519531 130.207031 -6.925781 125.25 -4.15625 C 120.300781 -1.382812 115.289062 0 110.21875 0 C 103.375 0 97.890625 -1.941406 93.765625 -5.828125 C 89.640625 -9.722656 86.632812 -14.828125 84.75 -21.140625 C 82.863281 -27.453125 81.859375 -34.265625 81.734375 -41.578125 C 81.617188 -48.890625 82.148438 -55.96875 83.328125 -62.8125 C 80.140625 -58.445312 77.160156 -53.960938 74.390625 -49.359375 C 71.617188 -44.765625 69.171875 -40.222656 67.046875 -35.734375 C 64.097656 -29.597656 60.5625 -23.785156 56.4375 -18.296875 C 52.3125 -12.816406 47.5625 -8.394531 42.1875 -5.03125 C 36.820312 -1.675781 30.660156 0 23.703125 0 C 17.097656 0 11.789062 -1.414062 7.78125 -4.25 C 3.769531 -7.082031 0.851562 -10.828125 -0.96875 -15.484375 C -2.800781 -20.140625 -3.742188 -25.179688 -3.796875 -30.609375 C -3.859375 -36.035156 -3.179688 -41.398438 -1.765625 -46.703125 C -0.347656 -52.015625 1.59375 -56.675781 4.0625 -60.6875 Z M 4.0625 -60.6875 "/></g></g></g><g fill="#ffffff" fill-opacity="1"><g transform="translate(207.990352, 206.203622)"><g><path d="M -5.125 -37.6875 C -3.707031 -43.695312 -1.378906 -49.707031 1.859375 -55.71875 C 5.097656 -61.738281 9.132812 -67.195312 13.96875 -72.09375 C 18.8125 -76.988281 24.238281 -80.9375 30.25 -83.9375 C 36.269531 -86.945312 42.695312 -88.453125 49.53125 -88.453125 C 56.375 -88.453125 61.328125 -86.679688 64.390625 -83.140625 C 67.460938 -79.609375 68.703125 -74.953125 68.109375 -69.171875 C 67.523438 -64.222656 66.082031 -59.390625 63.78125 -54.671875 C 61.476562 -49.953125 58.5 -45.820312 54.84375 -42.28125 C 51.1875 -38.75 46.882812 -36.15625 41.9375 -34.5 C 48.539062 -35.445312 54.816406 -37.453125 60.765625 -40.515625 C 66.722656 -43.578125 71.53125 -47.410156 75.1875 -52.015625 C 75.894531 -52.960938 76.601562 -53.347656 77.3125 -53.171875 C 78.019531 -52.992188 78.429688 -52.488281 78.546875 -51.65625 C 78.785156 -50.832031 78.816406 -49.769531 78.640625 -48.46875 C 78.460938 -47.175781 78.253906 -45.703125 78.015625 -44.046875 C 76.253906 -35.203125 72.984375 -27.476562 68.203125 -20.875 C 63.421875 -14.269531 57.492188 -9.140625 50.421875 -5.484375 C 43.347656 -1.828125 35.328125 0 26.359375 0 C 21.640625 0 17.066406 -0.734375 12.640625 -2.203125 C 8.222656 -3.679688 4.421875 -5.953125 1.234375 -9.015625 C -1.941406 -12.085938 -4.179688 -16.007812 -5.484375 -20.78125 C -6.785156 -25.5625 -6.664062 -31.195312 -5.125 -37.6875 Z M 28.3125 -62.625 C 22.882812 -62.625 18.28125 -61.441406 14.5 -59.078125 C 10.726562 -56.722656 8.84375 -53.835938 8.84375 -50.421875 C 8.84375 -47.117188 10.726562 -44.285156 14.5 -41.921875 C 18.28125 -39.566406 22.882812 -38.390625 28.3125 -38.390625 C 33.613281 -38.390625 38.179688 -39.566406 42.015625 -41.921875 C 45.847656 -44.285156 47.765625 -47.117188 47.765625 -50.421875 C 47.765625 -53.835938 45.847656 -56.722656 42.015625 -59.078125 C 38.179688 -61.441406 33.613281 -62.625 28.3125 -62.625 Z M 28.3125 -62.625 "/></g></g></g><g fill="#ffffff" fill-opacity="1"><g transform="translate(283.182446, 206.203622)"><g><path d="M 33.609375 -85.453125 C 33.253906 -84.742188 32.722656 -83.976562 32.015625 -83.15625 C 31.316406 -82.332031 30.550781 -81.503906 29.71875 -80.671875 C 27.59375 -78.546875 26.472656 -76.894531 26.359375 -75.71875 C 26.242188 -74.539062 26.804688 -74.007812 28.046875 -74.125 C 29.285156 -74.25 30.785156 -75.132812 32.546875 -76.78125 C 36.441406 -80.4375 41.394531 -83.441406 47.40625 -85.796875 C 53.425781 -88.160156 59.269531 -89.34375 64.9375 -89.34375 C 70 -89.457031 73.796875 -88.6875 76.328125 -87.03125 C 78.867188 -85.382812 80.4375 -83.617188 81.03125 -81.734375 C 81.625 -79.492188 81.210938 -77.101562 79.796875 -74.5625 C 78.378906 -72.03125 76.398438 -69.492188 73.859375 -66.953125 C 71.328125 -64.421875 68.644531 -62.035156 65.8125 -59.796875 C 63.332031 -57.910156 61.59375 -55.726562 60.59375 -53.25 C 59.59375 -50.769531 59.710938 -48.585938 60.953125 -46.703125 C 62.191406 -44.816406 64.816406 -43.875 68.828125 -43.875 C 71.535156 -43.875 74.332031 -44.582031 77.21875 -46 C 80.113281 -47.414062 82.5625 -49.421875 84.5625 -52.015625 C 85.269531 -52.960938 85.976562 -53.347656 86.6875 -53.171875 C 87.394531 -52.992188 87.8125 -52.488281 87.9375 -51.65625 C 88.28125 -49.882812 88.101562 -47.347656 87.40625 -44.046875 C 86.457031 -39.335938 84.507812 -34.414062 81.5625 -29.28125 C 78.613281 -24.144531 75.015625 -19.363281 70.765625 -14.9375 C 66.523438 -10.519531 61.925781 -6.925781 56.96875 -4.15625 C 52.007812 -1.382812 47 0 41.9375 0 C 35.914062 0 31.078125 -1.382812 27.421875 -4.15625 C 23.765625 -6.925781 21.492188 -10.640625 20.609375 -15.296875 C 19.722656 -19.960938 20.34375 -25.066406 22.46875 -30.609375 C 23.769531 -34.148438 26.25 -37.628906 29.90625 -41.046875 C 33.5625 -44.460938 37.039062 -47.882812 40.34375 -51.3125 C 45.769531 -56.851562 48.894531 -61.332031 49.71875 -64.75 C 50.539062 -68.175781 49.832031 -70.414062 47.59375 -71.46875 C 45.351562 -72.53125 42.226562 -72.351562 38.21875 -70.9375 C 34.207031 -69.53125 30.078125 -66.703125 25.828125 -62.453125 C 20.992188 -57.734375 17.660156 -52.128906 15.828125 -45.640625 C 14.003906 -39.160156 13.09375 -32.378906 13.09375 -25.296875 C 13.09375 -18.222656 13.503906 -11.382812 14.328125 -4.78125 C 14.679688 -1.59375 13.265625 0 10.078125 0 L -23.359375 0 C -25.003906 0 -25.796875 -0.441406 -25.734375 -1.328125 C -25.679688 -2.210938 -25.300781 -3.125 -24.59375 -4.0625 C -21.050781 -8.550781 -17.421875 -14.1875 -13.703125 -20.96875 C -9.992188 -27.75 -6.601562 -34.972656 -3.53125 -42.640625 C -0.46875 -50.304688 2.003906 -57.820312 3.890625 -65.1875 C 5.773438 -72.5625 6.601562 -79.082031 6.375 -84.75 C 6.375 -85.6875 6.578125 -86.535156 6.984375 -87.296875 C 7.398438 -88.066406 8.195312 -88.453125 9.375 -88.453125 C 11.03125 -88.453125 12.914062 -88.039062 15.03125 -87.21875 C 17.15625 -86.394531 19.394531 -85.804688 21.75 -85.453125 C 24.113281 -85.097656 26.359375 -85.628906 28.484375 -87.046875 C 28.953125 -87.398438 29.453125 -87.722656 29.984375 -88.015625 C 30.515625 -88.304688 31.078125 -88.453125 31.671875 -88.453125 C 32.378906 -88.453125 33 -88.1875 33.53125 -87.65625 C 34.0625 -87.132812 34.085938 -86.398438 33.609375 -85.453125 Z M 33.609375 -85.453125 "/></g></g></g><g fill="#ffffff" fill-opacity="1"><g transform="translate(367.751393, 206.203622)"><g/></g></g><g fill="#ffffff" fill-opacity="1"><g transform="translate(419.943561, 206.203622)"><g><path d="M 101.375 -65.984375 C 97.71875 -54.546875 94.351562 -42.78125 91.28125 -30.6875 C 88.21875 -18.601562 84.148438 -7.078125 79.078125 3.890625 C 74.710938 13.328125 69.609375 21.023438 63.765625 26.984375 C 57.929688 32.941406 51.769531 37.304688 45.28125 40.078125 C 38.800781 42.847656 32.316406 44.234375 25.828125 44.234375 C 19.222656 44.234375 12.972656 42.816406 7.078125 39.984375 C 1.179688 37.148438 -3.882812 33.109375 -8.125 27.859375 C -12.375 22.609375 -15.441406 16.296875 -17.328125 8.921875 C -19.222656 1.554688 -19.460938 -6.722656 -18.046875 -15.921875 C -16.984375 -23.117188 -14.828125 -29.929688 -11.578125 -36.359375 C -8.335938 -42.785156 -4.066406 -48.414062 1.234375 -53.25 C 6.546875 -58.082031 12.738281 -61.503906 19.8125 -63.515625 C 23.351562 -64.460938 27.242188 -64.90625 31.484375 -64.84375 C 35.734375 -64.78125 39.804688 -63.628906 43.703125 -61.390625 C 45.703125 -60.328125 46.523438 -59.320312 46.171875 -58.375 C 45.816406 -57.4375 44.640625 -56.847656 42.640625 -56.609375 C 38.035156 -55.898438 33.785156 -54.335938 29.890625 -51.921875 C 26.003906 -49.503906 22.703125 -46.613281 19.984375 -43.25 C 17.273438 -39.894531 15.390625 -36.390625 14.328125 -32.734375 C 12.441406 -26.597656 12.234375 -21.226562 13.703125 -16.625 C 15.179688 -12.03125 17.75 -8.4375 21.40625 -5.84375 C 25.0625 -3.25 29.363281 -1.863281 34.3125 -1.6875 C 39.269531 -1.507812 44.34375 -2.804688 49.53125 -5.578125 C 54.726562 -8.347656 59.507812 -12.800781 63.875 -18.9375 C 67.40625 -23.882812 70.410156 -29.304688 72.890625 -35.203125 C 75.367188 -41.097656 77.640625 -47.140625 79.703125 -53.328125 C 81.765625 -59.523438 83.859375 -65.457031 85.984375 -71.125 C 88.691406 -78.550781 91.460938 -85.832031 94.296875 -92.96875 C 97.128906 -100.101562 99.898438 -106.765625 102.609375 -112.953125 C 105.328125 -119.148438 107.863281 -124.375 110.21875 -128.625 C 107.269531 -128.15625 103.789062 -128.125 99.78125 -128.53125 C 95.769531 -128.945312 91.613281 -129.445312 87.3125 -130.03125 C 83.007812 -130.625 78.851562 -130.976562 74.84375 -131.09375 C 70.832031 -131.21875 67.234375 -130.804688 64.046875 -129.859375 C 60.390625 -128.679688 57.617188 -127 55.734375 -124.8125 C 53.847656 -122.632812 52.875 -120.363281 52.8125 -118 C 52.75 -115.644531 53.71875 -113.550781 55.71875 -111.71875 C 57.726562 -109.894531 60.738281 -108.804688 64.75 -108.453125 C 67.34375 -108.210938 69.992188 -108.390625 72.703125 -108.984375 C 75.421875 -109.578125 77.898438 -110.640625 80.140625 -112.171875 C 80.847656 -112.753906 81.4375 -112.898438 81.90625 -112.609375 C 82.382812 -112.316406 82.625 -111.695312 82.625 -110.75 C 82.507812 -104.144531 81.300781 -98.570312 79 -94.03125 C 76.695312 -89.488281 73.773438 -86.007812 70.234375 -83.59375 C 66.703125 -81.175781 63.019531 -79.847656 59.1875 -79.609375 C 55.351562 -79.378906 51.78125 -80.207031 48.46875 -82.09375 C 45.164062 -83.976562 42.570312 -86.925781 40.6875 -90.9375 C 38.800781 -94.945312 38.09375 -100.019531 38.5625 -106.15625 C 39.15625 -113.820312 41.128906 -121.015625 44.484375 -127.734375 C 47.847656 -134.460938 52.210938 -140.421875 57.578125 -145.609375 C 62.953125 -150.796875 69.085938 -154.863281 75.984375 -157.8125 C 82.890625 -160.757812 90.234375 -162.234375 98.015625 -162.234375 C 101.429688 -162.234375 105.523438 -162.085938 110.296875 -161.796875 C 115.078125 -161.503906 120.0625 -161.207031 125.25 -160.90625 C 130.445312 -160.613281 135.519531 -160.554688 140.46875 -160.734375 C 145.425781 -160.910156 149.851562 -161.410156 153.75 -162.234375 C 155.632812 -162.585938 156.722656 -162.144531 157.015625 -160.90625 C 157.304688 -159.664062 156.6875 -158.578125 155.15625 -157.640625 C 149.375 -154.210938 143.859375 -149.285156 138.609375 -142.859375 C 133.367188 -136.429688 128.503906 -129 124.015625 -120.5625 C 119.535156 -112.132812 115.40625 -103.257812 111.625 -93.9375 C 107.851562 -84.625 104.4375 -75.304688 101.375 -65.984375 Z M 101.375 -65.984375 "/></g></g></g><g fill="#ffffff" fill-opacity="1"><g transform="translate(530.343182, 206.203622)"><g><path d="M 19.46875 0 C 12.269531 0 6.632812 -1.585938 2.5625 -4.765625 C -1.5 -7.953125 -4.179688 -12.171875 -5.484375 -17.421875 C -6.785156 -22.671875 -6.84375 -28.453125 -5.65625 -34.765625 C -4.476562 -41.078125 -2.300781 -47.382812 0.875 -53.6875 C 4.0625 -60 8.070312 -65.78125 12.90625 -71.03125 C 17.75 -76.28125 23.296875 -80.492188 29.546875 -83.671875 C 35.796875 -86.859375 42.457031 -88.453125 49.53125 -88.453125 C 55.90625 -88.453125 60.800781 -86.859375 64.21875 -83.671875 C 67.644531 -80.492188 69.796875 -76.28125 70.671875 -71.03125 C 71.554688 -65.78125 71.378906 -60 70.140625 -53.6875 C 68.910156 -47.382812 66.734375 -41.078125 63.609375 -34.765625 C 60.484375 -28.453125 56.675781 -22.671875 52.1875 -17.421875 C 47.707031 -12.171875 42.695312 -7.953125 37.15625 -4.765625 C 31.613281 -1.585938 25.71875 0 19.46875 0 Z M 34.328125 -62.625 C 29.609375 -62.625 25.269531 -62.0625 21.3125 -60.9375 C 17.363281 -59.820312 14.207031 -58.347656 11.84375 -56.515625 C 9.488281 -54.691406 8.3125 -52.660156 8.3125 -50.421875 C 8.3125 -48.179688 9.488281 -46.144531 11.84375 -44.3125 C 14.207031 -42.488281 17.363281 -41.046875 21.3125 -39.984375 C 25.269531 -38.921875 29.609375 -38.390625 34.328125 -38.390625 C 39.160156 -38.390625 43.519531 -38.921875 47.40625 -39.984375 C 51.300781 -41.046875 54.425781 -42.488281 56.78125 -44.3125 C 59.144531 -46.144531 60.328125 -48.179688 60.328125 -50.421875 C 60.328125 -52.660156 59.144531 -54.691406 56.78125 -56.515625 C 54.425781 -58.347656 51.300781 -59.820312 47.40625 -60.9375 C 43.519531 -62.0625 39.160156 -62.625 34.328125 -62.625 Z M 34.328125 -62.625 "/></g></g></g></svg>