<svg xmlns="http://www.w3.org/2000/svg" xmlns:xlink="http://www.w3.org/1999/xlink" width="157" zoomAndPan="magnify" viewBox="0 0 117.75 117.749996" height="157" preserveAspectRatio="xMidYMid meet" version="1.0"><defs><clipPath id="b87aa38cd3"><path d="M 0 0 L 116.753906 0 L 116.753906 116.753906 L 0 116.753906 Z M 0 0 " clip-rule="nonzero"/></clipPath></defs><g clip-path="url(#b87aa38cd3)"><path fill="#f1f6f6" d="M 58.035156 10.453125 C 73.53125 10.453125 75.367188 10.515625 81.484375 10.796875 C 87.8125 11.082031 94.328125 12.527344 98.9375 17.136719 C 103.589844 21.785156 104.984375 28.238281 105.277344 34.585938 C 105.554688 40.703125 105.613281 42.539062 105.613281 58.035156 C 105.613281 73.53125 105.554688 75.367188 105.277344 81.484375 C 104.992188 87.78125 103.515625 94.355469 98.9375 98.9375 C 94.285156 103.589844 87.835938 104.984375 81.484375 105.277344 C 75.367188 105.554688 73.53125 105.613281 58.035156 105.613281 C 42.539062 105.613281 40.703125 105.554688 34.585938 105.277344 C 28.339844 104.992188 21.675781 103.480469 17.136719 98.9375 C 12.503906 94.304688 11.082031 87.792969 10.796875 81.484375 C 10.515625 75.367188 10.453125 73.53125 10.453125 58.035156 C 10.453125 42.539062 10.515625 40.703125 10.796875 34.585938 C 11.078125 28.316406 12.570312 21.699219 17.136719 17.136719 C 21.777344 12.492188 28.253906 11.082031 34.585938 10.796875 C 40.703125 10.515625 42.539062 10.453125 58.035156 10.453125 M 58.035156 0 C 42.273438 0 40.296875 0.0664062 34.105469 0.347656 C 25.132812 0.757812 16.226562 3.253906 9.738281 9.738281 C 3.230469 16.25 0.757812 25.140625 0.347656 34.105469 C 0.0664062 40.296875 0 42.273438 0 58.035156 C 0 73.796875 0.0664062 75.777344 0.347656 81.964844 C 0.757812 90.925781 3.261719 99.859375 9.738281 106.332031 C 16.246094 112.832031 25.148438 115.308594 34.105469 115.722656 C 40.296875 116 42.273438 116.070312 58.035156 116.070312 C 73.796875 116.070312 75.777344 116 81.964844 115.722656 C 90.929688 115.308594 99.847656 112.8125 106.332031 106.332031 C 112.84375 99.816406 115.308594 90.929688 115.722656 81.964844 C 116 75.777344 116.070312 73.796875 116.070312 58.035156 C 116.070312 42.273438 116 40.296875 115.722656 34.105469 C 115.308594 25.132812 112.8125 16.21875 106.332031 9.738281 C 99.835938 3.246094 90.90625 0.753906 81.964844 0.347656 C 75.777344 0.0664062 73.796875 0 58.035156 0 Z M 58.035156 0 " fill-opacity="1" fill-rule="nonzero"/></g><path fill="#f1f6f6" d="M 58.035156 28.234375 C 41.578125 28.234375 28.234375 41.578125 28.234375 58.035156 C 28.234375 74.492188 41.578125 87.835938 58.035156 87.835938 C 74.492188 87.835938 87.835938 74.492188 87.835938 58.035156 C 87.835938 41.578125 74.492188 28.234375 58.035156 28.234375 Z M 58.035156 77.378906 C 47.351562 77.378906 38.691406 68.714844 38.691406 58.035156 C 38.691406 47.351562 47.351562 38.691406 58.035156 38.691406 C 68.714844 38.691406 77.378906 47.351562 77.378906 58.035156 C 77.378906 68.714844 68.714844 77.378906 58.035156 77.378906 Z M 58.035156 77.378906 " fill-opacity="1" fill-rule="nonzero"/><path fill="#f1f6f6" d="M 95.980469 27.054688 C 95.980469 27.511719 95.933594 27.964844 95.847656 28.414062 C 95.757812 28.859375 95.625 29.296875 95.449219 29.71875 C 95.277344 30.140625 95.0625 30.542969 94.804688 30.921875 C 94.554688 31.304688 94.265625 31.65625 93.9375 31.980469 C 93.617188 32.300781 93.265625 32.589844 92.886719 32.84375 C 92.507812 33.097656 92.105469 33.3125 91.679688 33.488281 C 91.257812 33.664062 90.824219 33.796875 90.375 33.882812 C 89.925781 33.976562 89.472656 34.019531 89.015625 34.019531 C 88.558594 34.019531 88.109375 33.976562 87.65625 33.882812 C 87.210938 33.796875 86.773438 33.664062 86.351562 33.488281 C 85.929688 33.3125 85.527344 33.097656 85.148438 32.84375 C 84.769531 32.589844 84.414062 32.300781 84.089844 31.980469 C 83.769531 31.65625 83.480469 31.304688 83.222656 30.921875 C 82.972656 30.542969 82.753906 30.140625 82.582031 29.71875 C 82.40625 29.296875 82.273438 28.859375 82.1875 28.414062 C 82.097656 27.964844 82.054688 27.511719 82.054688 27.054688 C 82.054688 26.597656 82.097656 26.144531 82.1875 25.695312 C 82.273438 25.25 82.40625 24.8125 82.582031 24.390625 C 82.753906 23.96875 82.972656 23.566406 83.222656 23.183594 C 83.480469 22.804688 83.769531 22.453125 84.089844 22.128906 C 84.414062 21.808594 84.769531 21.519531 85.148438 21.265625 C 85.527344 21.007812 85.929688 20.796875 86.351562 20.621094 C 86.773438 20.445312 87.210938 20.3125 87.65625 20.222656 C 88.109375 20.132812 88.558594 20.089844 89.015625 20.089844 C 89.472656 20.089844 89.925781 20.132812 90.375 20.222656 C 90.824219 20.3125 91.257812 20.445312 91.679688 20.621094 C 92.105469 20.796875 92.507812 21.007812 92.886719 21.265625 C 93.265625 21.519531 93.617188 21.808594 93.9375 22.128906 C 94.265625 22.453125 94.554688 22.804688 94.804688 23.183594 C 95.0625 23.566406 95.277344 23.96875 95.449219 24.390625 C 95.625 24.8125 95.757812 25.25 95.847656 25.695312 C 95.933594 26.144531 95.980469 26.597656 95.980469 27.054688 Z M 95.980469 27.054688 " fill-opacity="1" fill-rule="nonzero"/></svg>