<svg xmlns="http://www.w3.org/2000/svg" xmlns:xlink="http://www.w3.org/1999/xlink" width="157" zoomAndPan="magnify" viewBox="0 0 117.75 117.749996" height="157" preserveAspectRatio="xMidYMid meet" version="1.0"><defs><clipPath id="8f7662dd89"><path d="M 7.328125 0 L 109 0 L 109 116.101562 L 7.328125 116.101562 Z M 7.328125 0 " clip-rule="nonzero"/></clipPath></defs><g clip-path="url(#8f7662dd89)"><path fill="#f1f6f6" d="M 108.648438 47.714844 C 98.300781 47.714844 88.710938 44.40625 80.886719 38.789062 L 80.886719 79.339844 C 80.886719 99.59375 64.410156 116.0625 44.160156 116.0625 C 36.335938 116.0625 29.078125 113.597656 23.113281 109.410156 C 13.644531 102.761719 7.433594 91.761719 7.433594 79.339844 C 7.433594 59.085938 23.910156 42.609375 44.164062 42.609375 C 45.847656 42.609375 47.492188 42.746094 49.113281 42.964844 L 49.113281 63.335938 C 47.542969 62.847656 45.894531 62.5625 44.164062 62.5625 C 34.917969 62.5625 27.390625 70.085938 27.390625 79.339844 C 27.390625 85.78125 31.050781 91.375 36.386719 94.1875 C 38.714844 95.410156 41.359375 96.109375 44.167969 96.109375 C 53.203125 96.109375 60.574219 88.925781 60.914062 79.96875 L 60.925781 0 L 80.882812 0 C 80.882812 1.730469 81.050781 3.417969 81.351562 5.0625 C 82.757812 12.667969 87.273438 19.191406 93.523438 23.269531 C 97.875 26.105469 103.070312 27.765625 108.640625 27.765625 L 108.640625 47.714844 Z M 108.648438 47.714844 " fill-opacity="1" fill-rule="nonzero"/></g></svg>