<svg xmlns="http://www.w3.org/2000/svg" xmlns:xlink="http://www.w3.org/1999/xlink" width="157" zoomAndPan="magnify" viewBox="0 0 117.75 117.749996" height="157" preserveAspectRatio="xMidYMid meet" version="1.0"><defs><clipPath id="2642ca6d00"><path d="M 0 0 L 115.929688 0 L 115.929688 116.101562 L 0 116.101562 Z M 0 0 " clip-rule="nonzero"/></clipPath></defs><g clip-path="url(#2642ca6d00)"><path fill="#ffffff" d="M 98.964844 16.867188 C 88.101562 5.996094 73.660156 0.00390625 58.277344 0 C 26.574219 0 0.773438 25.796875 0.757812 57.511719 C 0.753906 67.652344 3.40625 77.546875 8.441406 86.269531 L 0.277344 116.070312 L 30.761719 108.070312 C 39.164062 112.65625 48.625 115.070312 58.246094 115.074219 L 58.273438 115.074219 C 89.96875 115.074219 115.777344 89.273438 115.789062 57.558594 C 115.796875 42.191406 109.820312 27.738281 98.964844 16.867188 Z M 58.277344 105.359375 L 58.257812 105.359375 C 49.679688 105.359375 41.265625 103.050781 33.925781 98.695312 L 32.183594 97.660156 L 14.089844 102.402344 L 18.917969 84.757812 L 17.785156 82.949219 C 12.996094 75.339844 10.46875 66.542969 10.476562 57.511719 C 10.488281 31.15625 31.933594 9.710938 58.300781 9.710938 C 71.066406 9.710938 83.074219 14.691406 92.097656 23.726562 C 101.121094 32.765625 106.089844 44.773438 106.082031 57.546875 C 106.066406 83.914062 84.625 105.359375 58.277344 105.359375 Z M 84.5 69.554688 C 83.0625 68.835938 75.996094 65.359375 74.675781 64.878906 C 73.359375 64.398438 72.402344 64.15625 71.441406 65.59375 C 70.480469 67.03125 67.730469 70.269531 66.890625 71.234375 C 66.054688 72.191406 65.210938 72.3125 63.777344 71.589844 C 62.335938 70.871094 57.707031 69.359375 52.214844 64.457031 C 47.945312 60.648438 45.058594 55.941406 44.222656 54.5 C 43.386719 53.058594 44.136719 52.285156 44.851562 51.570312 C 45.5 50.925781 46.289062 49.890625 47.007812 49.050781 C 47.734375 48.214844 47.972656 47.617188 48.453125 46.652344 C 48.933594 45.699219 48.695312 44.855469 48.332031 44.136719 C 47.972656 43.421875 45.097656 36.34375 43.902344 33.46875 C 42.738281 30.660156 41.554688 31.042969 40.667969 31 C 39.832031 30.957031 38.871094 30.953125 37.910156 30.953125 C 36.953125 30.953125 35.394531 31.308594 34.082031 32.75 C 32.765625 34.191406 29.050781 37.671875 29.050781 44.738281 C 29.050781 51.816406 34.199219 58.652344 34.917969 59.605469 C 35.632812 60.5625 45.046875 75.085938 59.46875 81.304688 C 62.894531 82.785156 65.578125 83.671875 67.660156 84.335938 C 71.105469 85.429688 74.238281 85.273438 76.710938 84.90625 C 79.472656 84.492188 85.214844 81.429688 86.414062 78.070312 C 87.613281 74.714844 87.613281 71.832031 87.25 71.238281 C 86.894531 70.632812 85.9375 70.277344 84.5 69.554688 Z M 84.5 69.554688 " fill-opacity="1" fill-rule="evenodd"/></g></svg>